<?xml version="1.0" encoding="utf-8"?><svg version="1.1" id="Layer_1" xmlns="http://www.w3.org/2000/svg" xmlns:xlink="http://www.w3.org/1999/xlink" x="0px" y="0px" viewBox="0 0 32 32" style="enable-background:new 0 0 32 32;" xml:space="preserve"><style type="text/css"> .st0{fill:#0593FF;} .st1{fill:#C372FF;}</style><g id="Hyper_Link">	<path class="st0" d="M18,21.7c-2.9,0-5.2-2.3-5.2-5.2c0-1.1,0.3-2.1,0.9-3c0.3-0.5,0.9-0.6,1.4-0.2c0.5,0.3,0.6,0.9,0.2,1.4,c-0.9,1.3-0.7,3,0.4,4.1c1.3,1.3,3.3,1.3,4.6,0c0,0,0,0,0,0l6-6c1.2-1.3,1.2-3.4-0.1-4.6C24.9,7,23,7,21.7,8.2l-2.5,2.6,c-0.4,0.4-1,0.4-1.4,0s-0.4-1,0-1.4l2.5-2.6c2.1-2,5.4-1.9,7.4,0.3c1.9,2,1.9,5.1,0,7.2l-6,6C20.7,21.2,19.4,21.7,18,21.7z"/><path class="st1" d="M8,26.7c-2.9,0-5.2-2.3-5.2-5.2c0-1.4,0.6-2.7,1.5-3.7l6-6c1-1,2.3-1.5,3.7-1.5c1.4,0,2.7,0.6,3.7,1.5,c1.8,1.8,2.1,4.6,0.6,6.7c-0.3,0.5-0.9,0.6-1.4,0.2s-0.6-0.9-0.2-1.4c0.9-1.3,0.7-3-0.4-4.1c-0.6-0.6-1.4-1-2.3-1,c-0.9,0-1.7,0.4-2.3,1l-6,6c-1.2,1.3-1.2,3.4,0.1,4.6c1.2,1.2,3.2,1.2,4.4,0l2.6-2.5c0.4-0.4,1-0.4,1.4,0s0.4,1,0,1.4l-2.6,2.5,C10.7,26.2,9.4,26.7,8,26.7z"/></g></svg>